# xmcd
#
# Track frame offsets: 
#        150
#        12380
#        26445
#        39687
#        51502
#        66797
#        79590
#        92257
#        103405
#        117260
#        130650
#        142952
#        155542
#        170315
#        182572
#        193970
#        206555
#        218880
#        231030
#        246550
#
# Disc length: 3458 seconds
#
# Revision: 0
# Processed by: cddbd v1.4PL0 Copyright (c) Steve Scherf et al.
# Submitted via: ExactAudioCopy v0.90b4
#
DISCID=1a0d8014
DTITLE=Muddy Waters - Gitanes Blues
DYEAR=1900
DGENRE=Blues
TTITLE0=I can't be satisfied
TTITLE1=Rollin' stone
TTITLE2=Louisiana Blues
TTITLE3=Gypsy Woman
TTITLE4=Honey Bee
TTITLE5=Stuff you gotta watch
TTITLE6=I'm your hoochie coochie man
TTITLE7=Diamonds at your feet
TTITLE8=I'm ready
TTITLE9=Mannish boy
TTITLE10=Trouble no more
TTITLE11=My love strikes like lightnin'
TTITLE12=Good morning little schoolgirl
TTITLE13=Flood
TTITLE14=Sugar sweet
TTITLE15=You shook me
TTITLE16=The same thing
TTITLE17=Garbage man
TTITLE18="unk" in funk
TTITLE19=Got my Mojo working
EXTD=
EXTT0=
EXTT1=
EXTT2=
EXTT3=
EXTT4=
EXTT5=
EXTT6=
EXTT7=
EXTT8=
EXTT9=
EXTT10=
EXTT11=
EXTT12=
EXTT13=
EXTT14=
EXTT15=
EXTT16=
EXTT17=
EXTT18=
EXTT19=
PLAYORDER=
